<svg id="svg" version="1.1" xmlns="http://www.w3.org/2000/svg" xmlns:xlink="http://www.w3.org/1999/xlink" width="400" height="400" viewBox="0, 0, 400,400"><g id="svgg"><path id="path0" d="M164.000 55.022 C 159.200 55.997,150.529 59.398,150.067 60.486 C 149.993 60.659,149.740 60.800,149.503 60.800 C 145.634 60.800,134.738 74.282,132.045 82.400 C 130.517 87.007,130.400 87.440,130.400 88.502 C 130.400 89.077,130.200 90.055,129.955 90.674 C 129.692 91.340,129.406 96.295,129.255 102.800 L 129.000 113.800 128.000 113.676 C 120.843 112.785,115.891 113.432,111.400 115.843 C 110.520 116.316,109.115 117.067,108.277 117.513 C 107.439 117.959,106.900 118.415,107.079 118.525 C 107.258 118.636,108.401 118.140,109.618 117.424 C 114.652 114.460,120.588 113.126,125.217 113.920 C 129.999 114.740,129.477 115.903,129.708 103.900 C 129.981 89.696,130.915 84.842,134.855 77.145 C 140.863 65.407,152.189 57.477,166.200 55.201 C 169.947 54.592,232.881 54.875,235.800 55.513 C 236.900 55.754,238.340 56.065,239.000 56.205 C 239.660 56.346,240.560 56.609,241.000 56.791 C 241.440 56.973,242.880 57.535,244.200 58.040 C 254.617 62.024,263.575 71.409,267.580 82.537 C 268.226 84.332,268.765 85.529,268.777 85.198 C 268.790 84.867,268.376 83.427,267.857 81.998 C 264.185 71.882,257.453 64.288,247.355 58.870 C 244.295 57.229,240.213 55.879,235.600 54.983 C 231.412 54.169,168.025 54.204,164.000 55.022 M269.043 87.800 C 269.183 88.680,269.526 90.930,269.805 92.800 C 270.201 95.455,270.322 95.811,270.356 94.424 C 270.404 92.481,269.718 88.268,269.147 87.000 C 268.901 86.452,268.868 86.704,269.043 87.800 M270.492 105.500 L 270.400 114.400 271.533 114.400 C 272.157 114.400,273.707 114.191,274.980 113.935 C 279.108 113.106,285.506 114.563,290.444 117.457 C 292.926 118.912,293.200 119.006,293.200 118.400 C 293.200 118.180,292.952 118.000,292.648 118.000 C 292.345 118.000,291.085 117.391,289.848 116.646 C 284.700 113.546,278.891 112.632,272.108 113.855 L 270.816 114.088 270.700 105.344 L 270.584 96.600 270.492 105.500 M167.000 126.190 C 162.831 127.680,161.566 132.511,164.475 135.824 C 168.169 140.032,174.867 137.411,174.867 131.757 C 174.867 127.689,170.818 124.824,167.000 126.190 M229.264 126.145 C 226.695 127.075,225.200 129.155,225.200 131.800 C 225.200 137.199,231.609 139.911,235.402 136.118 C 239.851 131.669,235.142 124.016,229.264 126.145 M147.862 227.271 C 147.594 227.420,145.941 227.638,144.188 227.755 C 141.010 227.967,138.173 228.370,134.000 229.202 C 132.790 229.443,131.124 229.741,130.297 229.863 C 129.471 229.985,128.695 230.245,128.574 230.442 C 128.452 230.639,127.733 230.800,126.976 230.800 C 126.219 230.800,125.600 230.960,125.600 231.156 C 125.600 231.352,125.015 231.614,124.300 231.737 C 121.288 232.258,120.400 232.510,120.400 232.845 C 120.400 233.040,119.961 233.200,119.424 233.200 C 118.887 233.200,118.336 233.380,118.200 233.600 C 118.064 233.820,117.513 234.000,116.976 234.000 C 116.439 234.000,116.000 234.180,116.000 234.400 C 116.000 234.620,115.645 234.800,115.212 234.800 C 114.779 234.800,113.783 235.160,113.000 235.600 C 112.217 236.040,111.221 236.400,110.788 236.400 C 110.355 236.400,110.000 236.580,110.000 236.800 C 110.000 237.020,109.655 237.200,109.233 237.200 C 108.812 237.200,108.407 237.336,108.333 237.502 C 108.260 237.668,106.985 238.415,105.500 239.162 C 104.015 239.909,102.800 240.673,102.800 240.860 C 102.800 241.047,102.440 241.200,102.000 241.200 C 101.560 241.200,101.200 241.380,101.200 241.600 C 101.200 241.820,100.868 242.000,100.462 242.000 C 100.056 242.000,99.398 242.360,99.000 242.800 C 98.602 243.240,98.112 243.600,97.911 243.600 C 96.376 243.600,92.000 248.185,92.000 249.795 C 92.000 250.128,91.820 250.400,91.600 250.400 C 91.374 250.400,91.200 251.533,91.200 253.000 C 91.200 254.467,91.374 255.600,91.600 255.600 C 91.820 255.600,92.000 255.977,92.000 256.438 C 92.000 257.465,93.214 259.600,93.798 259.600 C 94.032 259.600,94.483 259.960,94.800 260.400 C 95.117 260.840,95.697 261.200,96.088 261.200 C 96.480 261.200,96.800 261.380,96.800 261.600 C 96.800 261.820,97.141 262.000,97.557 262.000 C 98.754 262.000,98.868 263.064,97.749 263.796 C 91.223 268.073,78.325 282.719,73.970 290.800 C 73.437 291.790,72.865 292.660,72.700 292.733 C 72.535 292.807,72.400 293.212,72.400 293.633 C 72.400 294.055,72.265 294.401,72.100 294.401 C 71.935 294.402,71.350 295.392,70.800 296.600 C 70.250 297.808,69.665 298.798,69.500 298.799 C 69.335 298.799,69.200 299.036,69.200 299.325 C 69.200 299.614,68.840 300.595,68.400 301.506 C 67.960 302.416,67.600 303.440,67.600 303.781 C 67.600 304.121,67.420 304.400,67.200 304.400 C 66.980 304.400,66.800 304.762,66.800 305.205 C 66.800 305.648,66.641 306.323,66.447 306.705 C 65.822 307.933,65.303 309.356,64.807 311.200 C 64.540 312.190,64.160 313.313,63.961 313.695 C 63.762 314.077,63.600 314.921,63.600 315.571 C 63.600 316.221,63.439 316.852,63.242 316.974 C 63.045 317.095,62.781 317.871,62.654 318.697 C 62.527 319.524,62.233 321.370,62.000 322.800 C 61.768 324.230,61.478 326.750,61.356 328.400 C 61.234 330.050,60.979 332.113,60.790 332.985 C 60.602 333.856,60.431 347.734,60.412 363.825 C 60.373 396.925,60.210 395.156,63.610 398.457 L 65.201 400.000 113.019 400.000 L 160.837 400.000 160.633 361.700 C 160.521 340.635,160.247 318.990,160.024 313.600 C 159.569 302.595,159.017 288.628,158.403 272.600 C 158.175 266.660,157.805 258.470,157.581 254.400 C 157.356 250.330,157.042 242.770,156.883 237.600 C 156.724 232.430,156.439 227.880,156.250 227.488 C 155.896 226.757,149.103 226.581,147.862 227.271 M243.753 227.479 C 243.562 227.876,243.275 232.520,243.115 237.800 C 242.956 243.080,242.644 250.910,242.421 255.200 C 242.199 259.490,241.832 267.950,241.607 274.000 C 241.031 289.484,240.449 304.535,239.976 316.200 C 239.753 321.700,239.475 342.805,239.359 363.100 L 239.148 400.000 286.945 400.000 C 328.899 400.000,334.816 399.927,335.343 399.400 C 335.673 399.070,336.091 398.800,336.271 398.799 C 336.668 398.798,338.492 395.876,339.155 394.177 C 340.062 391.857,339.339 324.800,338.408 324.800 C 338.224 324.800,337.975 323.855,337.855 322.700 C 337.469 318.996,337.125 317.201,336.758 316.974 C 336.561 316.852,336.400 316.144,336.400 315.400 C 336.400 314.656,336.220 313.936,336.000 313.800 C 335.780 313.664,335.600 313.059,335.600 312.456 C 335.600 311.853,335.451 311.189,335.270 310.980 C 335.088 310.771,334.710 309.790,334.431 308.800 C 334.151 307.810,333.760 306.687,333.561 306.305 C 333.362 305.923,333.200 305.338,333.200 305.005 C 333.200 304.672,333.020 304.400,332.800 304.400 C 332.580 304.400,332.400 303.961,332.400 303.424 C 332.400 302.887,332.220 302.336,332.000 302.200 C 331.780 302.064,331.600 301.603,331.600 301.176 C 331.600 300.749,331.465 300.399,331.300 300.397 C 330.941 300.393,330.000 298.456,330.000 297.720 C 330.000 297.434,329.854 297.200,329.675 297.200 C 329.496 297.200,329.102 296.570,328.800 295.800 C 328.498 295.030,328.104 294.400,327.925 294.400 C 327.746 294.400,327.600 294.128,327.600 293.795 C 327.600 293.086,326.889 291.770,325.900 290.645 C 325.515 290.207,325.200 289.613,325.200 289.325 C 325.200 289.036,325.020 288.800,324.800 288.800 C 324.580 288.800,324.400 288.616,324.400 288.391 C 324.400 287.854,322.673 285.205,320.305 282.111 C 319.257 280.743,318.400 279.478,318.400 279.300 C 318.400 279.122,318.040 278.717,317.600 278.400 C 317.160 278.083,316.800 277.593,316.800 277.312 C 316.800 277.030,316.665 276.798,316.500 276.796 C 315.998 276.789,312.057 272.877,312.303 272.630 C 312.430 272.504,312.358 272.400,312.144 272.400 C 311.930 272.400,310.388 271.095,308.718 269.500 C 304.312 265.291,301.920 263.200,301.512 263.200 C 300.801 263.200,301.664 262.407,303.117 261.726 C 303.933 261.343,305.140 260.529,305.800 259.917 C 306.460 259.305,307.120 258.803,307.267 258.802 C 309.104 258.789,309.225 250.228,307.422 247.864 C 306.349 246.457,302.456 243.351,301.948 243.496 C 301.809 243.536,301.376 243.215,300.986 242.784 C 300.595 242.353,299.944 242.000,299.538 242.000 C 299.132 242.000,298.800 241.820,298.800 241.600 C 298.800 241.380,298.564 241.200,298.275 241.200 C 297.987 241.200,297.364 240.840,296.892 240.400 C 296.420 239.960,295.756 239.600,295.417 239.600 C 295.078 239.600,294.800 239.420,294.800 239.200 C 294.800 238.980,294.440 238.800,294.000 238.800 C 293.560 238.800,293.200 238.620,293.200 238.400 C 293.200 238.180,292.840 238.000,292.400 238.000 C 291.960 238.000,291.600 237.820,291.600 237.600 C 291.600 237.380,291.240 237.200,290.800 237.200 C 290.360 237.200,290.000 237.020,290.000 236.800 C 290.000 236.580,289.728 236.400,289.395 236.400 C 289.062 236.400,288.477 236.241,288.095 236.047 C 287.379 235.683,285.754 234.989,284.000 234.300 C 283.450 234.084,282.687 233.748,282.305 233.553 C 281.923 233.359,281.259 233.200,280.829 233.200 C 280.399 233.200,279.936 233.020,279.800 232.800 C 279.664 232.580,279.124 232.400,278.600 232.400 C 278.076 232.400,277.536 232.220,277.400 232.000 C 277.264 231.780,276.634 231.600,276.000 231.600 C 275.366 231.600,274.736 231.420,274.600 231.200 C 274.464 230.980,273.744 230.800,273.000 230.800 C 272.256 230.800,271.536 230.620,271.400 230.400 C 271.264 230.180,270.569 230.000,269.856 230.000 C 269.143 230.000,268.389 229.837,268.180 229.639 C 267.971 229.440,266.990 229.177,266.000 229.054 C 265.010 228.930,263.030 228.637,261.600 228.403 C 260.170 228.168,257.830 227.892,256.400 227.789 C 254.970 227.686,253.350 227.506,252.800 227.389 C 249.613 226.709,244.099 226.765,243.753 227.479 " stroke="none" fill="#82645c" fill-rule="evenodd"></path><path id="path1" d="M167.800 55.381 C 167.580 55.456,165.817 55.746,163.882 56.026 C 161.947 56.306,160.272 56.684,160.158 56.867 C 160.045 57.050,159.601 57.200,159.172 57.200 C 158.743 57.200,157.628 57.542,156.696 57.959 C 155.763 58.377,154.415 58.961,153.700 59.257 C 152.985 59.553,152.400 59.898,152.400 60.023 C 152.400 60.148,151.770 60.498,151.000 60.800 C 150.230 61.102,149.600 61.496,149.600 61.675 C 149.600 61.854,149.364 62.000,149.075 62.000 C 148.787 62.000,148.200 62.315,147.771 62.700 C 147.343 63.085,146.098 64.120,145.005 65.000 C 138.736 70.049,131.600 81.921,131.600 87.303 C 131.600 87.880,131.420 88.464,131.200 88.600 C 130.980 88.736,130.800 89.906,130.800 91.200 C 130.800 92.494,130.648 93.647,130.462 93.761 C 129.730 94.214,129.250 162.585,129.949 166.800 C 130.149 168.010,130.603 170.044,130.957 171.320 C 131.311 172.595,131.600 173.990,131.600 174.420 C 131.600 174.849,131.780 175.200,132.000 175.200 C 132.220 175.200,132.400 175.639,132.400 176.176 C 132.400 176.713,132.580 177.264,132.800 177.400 C 133.020 177.536,133.200 177.909,133.200 178.228 C 133.200 178.547,133.539 179.572,133.953 180.504 C 134.367 181.437,134.941 182.830,135.230 183.600 C 135.518 184.370,135.876 185.090,136.025 185.200 C 136.173 185.310,136.700 186.210,137.196 187.200 C 137.692 188.190,138.300 189.404,138.549 189.897 C 138.797 190.390,139.135 190.795,139.300 190.797 C 139.465 190.799,139.600 191.072,139.600 191.404 C 139.600 191.736,140.140 192.572,140.800 193.263 C 141.460 193.954,142.000 194.691,142.000 194.902 C 142.000 195.395,144.408 198.420,147.172 201.400 C 147.989 202.280,148.729 203.180,148.818 203.400 C 149.083 204.058,150.154 205.200,150.506 205.200 C 150.907 205.200,151.772 205.893,152.928 207.143 C 153.407 207.661,154.610 208.640,155.600 209.318 C 156.590 209.995,157.670 210.832,158.000 211.178 C 158.330 211.523,159.095 212.060,159.700 212.370 C 160.305 212.681,160.800 213.085,160.800 213.268 C 160.800 213.450,161.036 213.600,161.325 213.600 C 161.613 213.600,162.198 213.923,162.625 214.318 C 163.784 215.393,166.777 216.731,168.700 217.034 L 170.400 217.302 170.400 237.232 L 170.400 257.162 171.900 257.815 C 172.725 258.174,173.713 258.632,174.095 258.834 C 174.477 259.035,175.141 259.200,175.571 259.200 C 176.001 259.200,176.452 259.360,176.573 259.556 C 176.694 259.751,177.379 260.013,178.096 260.137 C 178.813 260.261,179.983 260.481,180.697 260.626 L 181.993 260.890 182.097 239.145 L 182.200 217.400 188.000 217.400 L 193.800 217.400 193.903 239.853 L 194.007 262.307 197.003 262.587 C 198.651 262.742,201.349 262.742,202.997 262.587 L 205.993 262.307 206.097 239.853 L 206.200 217.400 212.000 217.400 L 217.800 217.400 217.903 239.145 L 218.007 260.890 219.303 260.626 C 220.017 260.481,221.187 260.261,221.904 260.137 C 222.621 260.013,223.306 259.751,223.427 259.556 C 223.548 259.360,223.999 259.200,224.429 259.200 C 224.859 259.200,225.568 259.020,226.005 258.800 C 226.442 258.580,227.158 258.220,227.595 258.000 C 228.032 257.780,228.660 257.600,228.991 257.600 C 229.517 257.600,229.606 255.083,229.696 237.526 L 229.800 217.452 231.600 216.988 C 233.496 216.499,237.600 214.435,237.600 213.970 C 237.600 213.820,238.140 213.473,238.800 213.200 C 239.460 212.927,240.000 212.557,240.000 212.378 C 240.000 212.200,240.366 211.938,240.813 211.796 C 241.260 211.654,242.062 211.102,242.595 210.569 C 243.128 210.036,243.762 209.600,244.005 209.600 C 244.248 209.600,244.336 209.420,244.200 209.200 C 244.064 208.980,244.217 208.800,244.541 208.800 C 245.345 208.800,253.013 201.197,255.432 198.000 C 256.515 196.570,257.609 195.220,257.864 195.000 C 258.119 194.780,258.829 193.655,259.443 192.500 C 260.056 191.345,260.702 190.400,260.879 190.400 C 261.055 190.400,261.200 190.164,261.200 189.875 C 261.200 189.587,261.560 188.964,262.000 188.492 C 262.440 188.020,262.800 187.266,262.800 186.817 C 262.800 186.368,262.980 186.000,263.200 186.000 C 263.420 186.000,263.600 185.640,263.600 185.200 C 263.600 184.760,263.751 184.400,263.936 184.400 C 264.121 184.400,264.508 183.686,264.796 182.813 C 265.084 181.941,265.472 181.321,265.660 181.437 C 265.847 181.553,266.000 181.097,266.000 180.424 C 266.000 179.751,266.180 179.200,266.400 179.200 C 266.620 179.200,266.800 178.671,266.800 178.024 C 266.800 177.377,266.980 176.736,267.200 176.600 C 267.420 176.464,267.600 175.924,267.600 175.400 C 267.600 174.876,267.780 174.336,268.000 174.200 C 268.220 174.064,268.400 173.513,268.400 172.976 C 268.400 172.439,268.562 172.000,268.760 172.000 C 268.958 172.000,269.216 171.235,269.334 170.300 C 269.606 168.145,270.001 165.973,270.262 165.200 C 270.945 163.176,270.031 96.713,269.247 91.400 C 267.629 80.433,262.607 71.130,254.995 65.000 C 253.902 64.120,252.657 63.085,252.229 62.700 C 251.800 62.315,251.213 62.000,250.925 62.000 C 250.636 62.000,250.400 61.820,250.400 61.600 C 250.400 61.380,250.145 61.200,249.833 61.200 C 249.522 61.200,249.207 61.065,249.133 60.900 C 248.932 60.446,243.397 57.860,241.051 57.123 C 235.810 55.477,235.886 55.480,201.400 55.361 C 183.140 55.297,168.020 55.306,167.800 55.381 M199.869 123.007 C 201.790 125.012,202.040 126.530,201.224 131.233 C 200.866 133.296,200.449 136.009,199.600 141.800 C 199.390 143.232,199.002 145.681,198.737 147.243 C 198.170 150.591,198.362 151.063,200.758 152.232 C 205.804 154.691,206.892 159.081,203.337 162.636 C 199.471 166.502,191.160 163.081,187.703 156.200 C 185.891 152.595,185.793 149.863,187.200 142.200 C 187.402 141.100,187.763 138.760,188.002 137.000 C 188.932 130.160,189.676 125.754,190.078 124.698 C 191.585 120.748,196.835 119.841,199.869 123.007 M173.376 127.398 C 175.140 129.136,175.200 129.274,175.200 131.603 C 175.200 138.816,165.713 141.031,162.967 134.459 C 160.223 127.893,168.313 122.406,173.376 127.398 M234.086 126.100 C 240.045 129.506,237.937 138.400,231.170 138.400 C 229.077 138.400,225.600 136.231,225.600 134.925 C 225.600 134.636,225.420 134.400,225.200 134.400 C 224.626 134.400,224.706 130.156,225.300 129.102 C 227.063 125.973,231.319 124.519,234.086 126.100 M192.633 173.980 C 197.048 176.780,202.271 176.693,206.258 173.751 C 212.589 169.081,219.742 177.432,214.177 182.996 C 206.299 190.875,186.663 189.427,182.795 180.682 C 180.200 174.816,186.829 170.299,192.633 173.980 M156.879 234.500 C 157.032 238.515,157.372 246.120,157.633 251.400 C 157.894 256.680,158.262 265.410,158.450 270.800 C 158.638 276.190,158.965 285.100,159.176 290.600 C 159.388 296.100,159.714 305.680,159.902 311.888 C 160.089 318.096,160.361 323.294,160.505 323.439 C 160.790 323.723,160.522 307.585,160.166 303.000 C 160.046 301.460,159.776 295.430,159.565 289.600 C 159.354 283.770,159.003 274.320,158.786 268.600 C 158.568 262.880,158.217 253.340,158.006 247.400 C 157.503 233.250,157.156 227.200,156.850 227.200 C 156.712 227.199,156.726 230.484,156.879 234.500 M242.800 230.936 C 242.800 232.991,242.628 236.096,242.418 237.836 C 241.956 241.664,241.609 262.867,242.046 260.600 C 242.215 259.720,242.364 256.799,242.377 254.108 C 242.390 251.418,242.579 246.558,242.798 243.308 C 243.321 235.552,243.477 227.199,243.100 227.199 C 242.935 227.200,242.800 228.881,242.800 230.936 M241.291 269.438 C 241.241 272.759,241.117 277.439,241.015 279.838 C 240.854 283.636,240.881 283.890,241.218 281.800 C 241.432 280.480,241.556 275.800,241.494 271.400 C 241.391 264.021,241.375 263.868,241.291 269.438 M240.491 290.238 C 240.441 293.559,240.317 298.239,240.215 300.638 C 240.054 304.436,240.081 304.690,240.418 302.600 C 240.632 301.280,240.756 296.600,240.694 292.200 C 240.591 284.821,240.575 284.668,240.491 290.238 M239.689 311.000 C 239.638 314.300,239.516 319.340,239.418 322.200 C 239.248 327.159,239.257 327.243,239.628 324.000 C 239.841 322.130,239.963 317.090,239.899 312.800 C 239.787 305.334,239.778 305.257,239.689 311.000 M160.984 342.400 C 160.984 352.410,161.036 356.505,161.100 351.500 C 161.163 346.495,161.163 338.305,161.100 333.300 C 161.036 328.295,160.984 332.390,160.984 342.400 M238.991 364.800 C 238.991 384.270,239.040 392.235,239.100 382.500 C 239.160 372.765,239.160 356.835,239.100 347.100 C 239.040 337.365,238.991 345.330,238.991 364.800 M160.972 390.800 C 160.972 395.970,161.029 398.085,161.099 395.500 C 161.168 392.915,161.168 388.685,161.099 386.100 C 161.029 383.515,160.972 385.630,160.972 390.800 " stroke="none" fill="#cc6c5c" fill-rule="evenodd"></path><path id="path2" d="M185.400 0.272 C 184.080 0.367,182.829 0.614,182.620 0.822 C 182.411 1.030,181.466 1.200,180.520 1.200 C 179.574 1.200,178.800 1.380,178.800 1.600 C 178.800 1.820,178.080 2.000,177.200 2.000 C 176.320 2.000,175.600 2.180,175.600 2.400 C 175.600 2.620,175.060 2.800,174.400 2.800 C 173.740 2.800,173.200 2.980,173.200 3.200 C 173.200 3.420,172.671 3.600,172.024 3.600 C 171.377 3.600,170.736 3.780,170.600 4.000 C 170.464 4.220,169.913 4.400,169.376 4.400 C 168.839 4.400,168.400 4.580,168.400 4.800 C 168.400 5.020,167.860 5.200,167.200 5.200 C 166.540 5.200,166.000 5.380,166.000 5.600 C 166.000 5.820,165.550 6.000,165.000 6.000 C 164.450 6.000,164.000 6.180,164.000 6.400 C 164.000 6.620,163.550 6.800,163.000 6.800 C 162.450 6.800,162.000 6.980,162.000 7.200 C 162.000 7.420,161.640 7.600,161.200 7.600 C 160.760 7.600,160.400 7.780,160.400 8.000 C 160.400 8.220,160.040 8.400,159.600 8.400 C 159.160 8.400,158.800 8.591,158.800 8.824 C 158.800 9.057,158.632 9.144,158.428 9.017 C 158.223 8.891,157.942 8.970,157.804 9.193 C 157.666 9.417,157.203 9.600,156.776 9.600 C 156.349 9.600,156.000 9.780,156.000 10.000 C 156.000 10.220,155.640 10.400,155.200 10.400 C 154.760 10.400,154.400 10.558,154.400 10.751 C 154.400 10.945,153.860 11.327,153.200 11.600 C 152.540 11.873,152.000 12.255,152.000 12.449 C 152.000 12.642,151.640 12.800,151.200 12.800 C 150.760 12.800,150.400 12.950,150.400 13.132 C 150.400 13.315,149.905 13.720,149.300 14.032 C 148.695 14.345,147.851 14.915,147.425 15.300 C 146.998 15.685,146.453 16.000,146.213 16.000 C 145.973 16.000,145.517 16.360,145.200 16.800 C 144.883 17.240,144.458 17.600,144.255 17.600 C 144.052 17.600,143.371 18.140,142.740 18.800 C 142.109 19.460,141.443 20.000,141.259 20.000 C 140.628 20.000,128.000 32.173,128.000 32.782 C 128.000 32.943,127.539 33.599,126.977 34.238 C 126.414 34.877,125.667 35.940,125.317 36.600 C 124.968 37.260,124.348 38.091,123.941 38.447 C 123.533 38.803,123.200 39.348,123.200 39.659 C 123.200 39.969,122.840 40.483,122.400 40.800 C 121.960 41.117,121.600 41.607,121.600 41.888 C 121.600 42.170,121.420 42.400,121.200 42.400 C 120.980 42.400,120.800 42.670,120.800 43.000 C 120.800 43.330,120.620 43.600,120.400 43.600 C 120.180 43.600,120.000 43.870,120.000 44.200 C 120.000 44.530,119.820 44.800,119.600 44.800 C 119.380 44.800,119.200 45.160,119.200 45.600 C 119.200 46.040,119.020 46.400,118.800 46.400 C 118.580 46.400,118.400 46.760,118.400 47.200 C 118.400 47.640,118.220 48.000,118.000 48.000 C 117.780 48.000,117.600 48.345,117.600 48.767 C 117.600 49.188,117.465 49.593,117.300 49.667 C 116.868 49.859,115.200 53.172,115.200 53.838 C 115.200 54.147,115.020 54.400,114.800 54.400 C 114.580 54.400,114.400 54.760,114.400 55.200 C 114.400 55.640,114.220 56.000,114.000 56.000 C 113.780 56.000,113.600 56.355,113.600 56.788 C 113.600 57.221,113.240 58.217,112.800 59.000 C 112.360 59.783,112.000 60.768,112.000 61.189 C 112.000 61.609,111.820 62.064,111.600 62.200 C 111.380 62.336,111.200 62.876,111.200 63.400 C 111.200 63.924,111.020 64.464,110.800 64.600 C 110.580 64.736,110.400 65.366,110.400 66.000 C 110.400 66.634,110.244 67.249,110.054 67.367 C 109.864 67.484,109.584 68.350,109.433 69.290 C 109.282 70.231,109.070 71.450,108.961 72.000 C 108.852 72.550,108.657 74.215,108.528 75.700 C 108.398 77.185,108.137 78.400,107.946 78.400 C 107.756 78.400,107.600 80.020,107.600 82.000 C 107.600 84.133,107.437 85.600,107.200 85.600 C 106.940 85.600,106.800 91.267,106.800 101.800 C 106.800 111.836,106.945 118.000,107.182 118.000 C 107.393 118.000,108.428 117.503,109.482 116.896 C 115.480 113.442,119.920 112.670,128.000 113.676 L 129.000 113.800 129.255 102.800 C 129.406 96.295,129.692 91.340,129.955 90.674 C 130.200 90.055,130.400 89.077,130.400 88.502 C 130.400 87.440,130.517 87.007,132.045 82.400 C 134.738 74.282,145.634 60.800,149.503 60.800 C 149.740 60.800,149.993 60.659,150.067 60.486 C 150.285 59.972,156.002 57.294,158.800 56.394 C 164.958 54.415,165.260 54.400,200.000 54.400 C 234.275 54.400,234.808 54.424,240.800 56.228 C 253.325 59.999,264.153 70.446,267.924 82.400 C 270.151 89.461,270.464 91.823,270.696 103.337 L 270.913 114.074 272.156 113.848 C 278.865 112.629,284.714 113.554,289.848 116.646 C 291.085 117.391,292.345 118.000,292.648 118.000 C 293.335 118.000,293.484 86.223,292.800 85.800 C 292.580 85.664,292.400 83.973,292.400 82.043 C 292.400 80.113,292.265 78.399,292.100 78.235 C 291.935 78.071,291.591 76.286,291.337 74.269 C 291.082 72.251,290.664 69.790,290.408 68.800 C 290.152 67.810,289.846 66.415,289.727 65.700 C 289.609 64.985,289.352 64.400,289.156 64.400 C 288.960 64.400,288.800 63.860,288.800 63.200 C 288.800 62.540,288.620 62.000,288.400 62.000 C 288.180 62.000,288.000 61.561,288.000 61.024 C 288.000 60.487,287.820 59.936,287.600 59.800 C 287.380 59.664,287.200 59.113,287.200 58.576 C 287.200 58.039,287.020 57.600,286.800 57.600 C 286.580 57.600,286.400 57.240,286.400 56.800 C 286.400 56.360,286.220 56.000,286.000 56.000 C 285.780 56.000,285.600 55.640,285.600 55.200 C 285.600 54.760,285.420 54.400,285.200 54.400 C 284.980 54.400,284.800 53.860,284.800 53.200 C 284.800 52.540,284.620 52.000,284.400 52.000 C 284.180 52.000,284.000 51.655,284.000 51.233 C 284.000 50.812,283.865 50.407,283.700 50.333 C 283.324 50.166,282.025 48.036,281.729 47.100 C 281.607 46.715,281.348 46.400,281.153 46.400 C 280.959 46.400,280.800 46.040,280.800 45.600 C 280.800 45.160,280.620 44.800,280.400 44.800 C 280.180 44.800,280.000 44.564,280.000 44.275 C 280.000 43.987,279.640 43.364,279.200 42.892 C 278.760 42.420,278.400 41.886,278.400 41.705 C 278.400 41.524,278.040 41.117,277.600 40.800 C 277.160 40.483,276.800 39.943,276.800 39.600 C 276.800 39.257,276.440 38.717,276.000 38.400 C 275.560 38.083,275.200 37.541,275.200 37.195 C 275.200 36.849,274.570 35.899,273.800 35.082 C 273.030 34.266,272.400 33.429,272.400 33.221 C 272.400 32.733,259.485 20.000,258.989 20.000 C 258.865 20.000,258.344 19.595,257.832 19.100 C 256.407 17.723,255.224 16.800,254.884 16.800 C 254.715 16.800,254.317 16.440,254.000 16.000 C 253.683 15.560,253.143 15.200,252.800 15.200 C 252.457 15.200,251.917 14.840,251.600 14.400 C 251.283 13.960,250.703 13.600,250.312 13.600 C 249.920 13.600,249.600 13.442,249.600 13.249 C 249.600 13.055,249.060 12.673,248.400 12.400 C 247.740 12.127,247.200 11.745,247.200 11.551 C 247.200 11.358,246.840 11.200,246.400 11.200 C 245.960 11.200,245.600 11.020,245.600 10.800 C 245.600 10.580,245.240 10.400,244.800 10.400 C 244.360 10.400,244.000 10.220,244.000 10.000 C 244.000 9.780,243.640 9.600,243.200 9.600 C 242.760 9.600,242.400 9.409,242.400 9.176 C 242.400 8.943,242.232 8.856,242.028 8.983 C 241.823 9.109,241.542 9.030,241.404 8.807 C 241.266 8.583,240.803 8.400,240.376 8.400 C 239.949 8.400,239.600 8.220,239.600 8.000 C 239.600 7.780,239.240 7.600,238.800 7.600 C 238.360 7.600,238.000 7.420,238.000 7.200 C 238.000 6.980,237.640 6.800,237.200 6.800 C 236.760 6.800,236.400 6.620,236.400 6.400 C 236.400 6.180,235.860 6.000,235.200 6.000 C 234.540 6.000,234.000 5.820,234.000 5.600 C 234.000 5.380,233.640 5.200,233.200 5.200 C 232.760 5.200,232.400 5.020,232.400 4.800 C 232.400 4.580,231.860 4.400,231.200 4.400 C 230.540 4.400,230.000 4.220,230.000 4.000 C 230.000 3.780,229.460 3.600,228.800 3.600 C 228.140 3.600,227.600 3.420,227.600 3.200 C 227.600 2.980,226.981 2.800,226.224 2.800 C 225.467 2.800,224.736 2.620,224.600 2.400 C 224.464 2.180,223.733 2.000,222.976 2.000 C 222.219 2.000,221.600 1.820,221.600 1.600 C 221.600 1.380,220.715 1.200,219.633 1.200 C 218.470 1.200,217.602 1.006,217.508 0.725 C 217.349 0.246,190.970 -0.126,185.400 0.272 M304.600 265.751 C 305.260 266.289,305.866 266.663,305.948 266.583 C 306.185 266.350,305.070 265.381,304.200 265.065 C 303.669 264.872,303.803 265.102,304.600 265.751 M308.800 269.352 C 308.800 269.725,311.723 272.411,311.917 272.216 C 312.009 272.124,311.657 271.633,311.135 271.124 C 309.780 269.805,308.800 269.062,308.800 269.352 M88.095 271.898 C 87.158 272.902,86.456 273.789,86.536 273.869 C 86.680 274.013,90.400 270.430,90.400 270.147 C 90.400 269.679,89.598 270.288,88.095 271.898 M312.302 272.631 C 312.183 272.751,312.535 273.298,313.085 273.848 C 314.381 275.145,314.642 274.884,313.443 273.490 C 312.935 272.898,312.421 272.512,312.302 272.631 M320.645 282.612 C 321.010 283.169,321.386 283.547,321.482 283.451 C 321.719 283.214,320.684 281.600,320.295 281.600 C 320.122 281.600,320.280 282.056,320.645 282.612 M323.600 286.478 C 323.600 286.605,323.869 287.224,324.198 287.854 C 324.526 288.484,324.790 288.730,324.785 288.400 C 324.779 288.070,324.510 287.451,324.187 287.024 C 323.864 286.596,323.600 286.351,323.600 286.478 M60.649 331.415 C 60.512 331.773,60.418 332.546,60.440 333.133 C 60.473 333.991,60.552 333.895,60.846 332.640 C 61.222 331.039,61.095 330.253,60.649 331.415 M339.293 332.800 C 339.293 333.570,339.375 333.885,339.476 333.500 C 339.576 333.115,339.576 332.485,339.476 332.100 C 339.375 331.715,339.293 332.030,339.293 332.800 M62.013 397.056 C 62.031 397.544,63.157 398.976,63.361 398.771 C 63.455 398.677,63.187 398.175,62.766 397.656 C 62.345 397.136,62.006 396.866,62.013 397.056 M337.299 397.591 C 336.612 398.690,336.674 398.983,337.432 398.225 C 337.780 397.877,338.004 397.413,337.931 397.192 C 337.857 396.972,337.573 397.151,337.299 397.591 " stroke="none" fill="#3f393f" fill-rule="evenodd"></path><path id="path3" d="M162.076 216.624 C 161.788 216.950,161.383 217.113,161.176 216.985 C 160.969 216.857,160.800 216.943,160.800 217.176 C 160.800 217.409,160.530 217.600,160.200 217.600 C 159.870 217.600,159.600 217.780,159.600 218.000 C 159.600 218.220,159.364 218.400,159.075 218.400 C 158.786 218.400,158.302 219.030,158.000 219.800 C 157.698 220.570,157.304 221.200,157.125 221.200 C 156.946 221.200,156.800 221.650,156.800 222.200 C 156.800 222.750,156.620 223.200,156.400 223.200 C 156.180 223.200,156.000 224.100,156.000 225.200 C 156.000 226.630,156.157 227.200,156.550 227.200 C 157.181 227.200,157.392 230.130,158.005 247.400 C 158.588 263.851,159.682 292.061,160.434 310.000 C 160.659 315.390,160.934 337.845,161.045 359.900 L 161.245 400.000 199.989 400.000 L 238.732 400.000 238.946 361.100 C 239.063 339.705,239.343 317.790,239.567 312.400 C 239.791 307.010,240.163 297.740,240.395 291.800 C 240.626 285.860,240.997 276.320,241.219 270.600 C 241.442 264.880,241.808 254.980,242.033 248.600 C 242.763 227.877,242.808 227.200,243.433 227.200 C 243.848 227.200,244.000 226.655,244.000 225.176 C 244.000 223.929,243.847 223.248,243.600 223.400 C 243.362 223.547,243.200 223.071,243.200 222.224 C 243.200 221.441,243.020 220.800,242.800 220.800 C 242.580 220.800,242.400 220.530,242.400 220.200 C 242.400 219.870,242.220 219.600,242.000 219.600 C 241.780 219.600,241.598 219.375,241.595 219.100 C 241.589 218.507,239.074 216.800,238.206 216.800 C 237.873 216.800,237.600 216.603,237.600 216.361 C 237.600 215.811,234.569 216.081,231.800 216.877 L 229.800 217.452 229.696 237.526 C 229.606 255.083,229.517 257.600,228.991 257.600 C 228.660 257.600,228.032 257.780,227.595 258.000 C 227.158 258.220,226.442 258.580,226.005 258.800 C 225.568 259.020,224.859 259.200,224.429 259.200 C 223.999 259.200,223.548 259.360,223.427 259.556 C 223.306 259.751,222.621 260.013,221.904 260.137 C 221.187 260.261,220.017 260.481,219.303 260.626 L 218.007 260.890 217.903 239.145 L 217.800 217.400 212.000 217.400 L 206.200 217.400 206.097 239.853 L 205.993 262.307 202.997 262.587 C 201.349 262.742,198.651 262.742,197.003 262.587 L 194.007 262.307 193.903 239.853 L 193.800 217.400 188.000 217.400 L 182.200 217.400 182.097 239.145 L 181.993 260.890 180.697 260.626 C 179.983 260.481,178.813 260.261,178.096 260.137 C 177.379 260.013,176.694 259.751,176.573 259.556 C 176.452 259.360,176.001 259.200,175.571 259.200 C 175.141 259.200,174.477 259.035,174.095 258.834 C 173.713 258.632,172.725 258.174,171.900 257.815 L 170.400 257.162 170.398 237.281 L 170.395 217.400 167.475 216.700 C 163.956 215.856,162.768 215.840,162.076 216.624 " stroke="none" fill="#fbb34b" fill-rule="evenodd"></path><path id="path4" d="M166.476 55.140 C 165.968 55.283,181.054 55.400,200.000 55.400 C 218.946 55.400,234.032 55.283,233.524 55.140 C 232.317 54.800,167.683 54.800,166.476 55.140 M162.000 56.021 C 161.570 56.314,161.854 56.354,163.000 56.162 C 164.984 55.830,165.304 55.598,163.767 55.606 C 163.125 55.609,162.330 55.796,162.000 56.021 M235.233 55.747 C 235.325 55.828,236.120 56.014,237.000 56.162 C 238.146 56.354,238.430 56.314,238.000 56.021 C 237.460 55.653,234.832 55.393,235.233 55.747 M151.065 60.247 C 150.440 60.586,150.003 60.937,150.094 61.027 C 150.332 61.265,152.393 60.256,152.397 59.900 C 152.401 59.519,152.415 59.516,151.065 60.247 M144.669 64.838 C 143.387 65.917,142.455 66.800,142.597 66.800 C 142.740 66.800,143.789 66.037,144.928 65.105 C 146.068 64.173,147.075 63.363,147.167 63.305 C 147.258 63.247,147.258 63.127,147.167 63.038 C 147.075 62.949,145.951 63.759,144.669 64.838 M252.823 63.038 C 252.844 63.377,256.552 66.416,257.355 66.753 C 257.556 66.838,256.928 66.216,255.960 65.371 C 253.139 62.908,252.799 62.656,252.823 63.038 M139.001 70.687 C 135.924 74.418,130.888 84.621,131.715 85.448 C 131.823 85.556,132.239 84.600,132.638 83.322 C 134.117 78.600,136.477 74.368,140.124 69.900 C 140.977 68.855,141.572 68.000,141.446 68.000 C 141.320 68.000,140.220 69.209,139.001 70.687 M259.876 69.900 C 264.435 75.485,266.247 79.186,268.742 88.000 C 269.119 89.330,269.127 89.310,268.912 87.600 C 268.258 82.402,264.065 73.948,259.573 68.769 C 258.149 67.126,258.411 68.104,259.876 69.900 M131.254 86.400 C 131.219 86.730,131.077 87.450,130.940 88.000 C 130.748 88.772,130.802 88.897,131.177 88.549 C 131.444 88.301,131.585 87.581,131.491 86.949 C 131.397 86.317,131.290 86.070,131.254 86.400 M130.470 90.650 C 130.431 91.118,130.286 92.108,130.147 92.850 C 129.953 93.887,130.005 94.097,130.373 93.754 C 130.657 93.490,130.788 92.595,130.696 91.554 C 130.610 90.589,130.508 90.183,130.470 90.650 M269.206 91.633 C 269.209 92.605,269.394 93.670,269.616 94.000 C 269.897 94.418,269.939 93.933,269.755 92.400 C 269.425 89.647,269.198 89.329,269.206 91.633 M270.260 110.200 C 270.337 117.900,270.399 132.705,270.399 143.100 C 270.400 159.633,270.475 162.000,271.000 162.000 C 271.330 162.000,271.600 162.180,271.600 162.400 C 271.600 162.649,273.867 162.800,277.600 162.800 C 281.333 162.800,283.600 162.649,283.600 162.400 C 283.600 162.180,284.052 162.000,284.605 162.000 C 285.158 162.000,285.923 161.843,286.305 161.650 C 289.805 159.887,290.744 159.411,291.688 158.920 C 293.241 158.111,298.800 152.565,298.800 151.823 C 298.800 151.480,298.935 151.199,299.100 151.197 C 299.459 151.193,300.400 149.256,300.400 148.520 C 300.400 148.234,300.580 148.000,300.800 148.000 C 301.020 148.000,301.200 147.460,301.200 146.800 C 301.200 146.140,301.380 145.600,301.600 145.600 C 301.820 145.600,302.000 144.959,302.000 144.176 C 302.000 143.329,302.162 142.853,302.400 143.000 C 302.905 143.312,302.951 133.488,302.449 132.495 C 301.913 131.433,301.200 129.024,301.200 128.272 C 301.200 127.902,301.020 127.600,300.800 127.600 C 300.580 127.600,300.400 127.229,300.400 126.776 C 300.400 126.323,300.220 126.064,300.000 126.200 C 299.780 126.336,299.600 126.077,299.600 125.624 C 299.600 125.171,299.420 124.800,299.200 124.800 C 298.980 124.800,298.800 124.547,298.800 124.238 C 298.800 123.431,293.716 118.281,293.222 118.587 C 292.994 118.727,291.760 118.229,290.480 117.479 C 285.505 114.563,279.121 113.104,274.980 113.935 C 273.707 114.191,272.160 114.400,271.541 114.400 L 270.415 114.400 270.268 105.300 C 270.188 100.295,270.184 102.500,270.260 110.200 M129.600 105.333 C 129.600 115.735,130.099 114.757,125.217 113.920 C 120.644 113.136,114.580 114.477,109.815 117.326 C 108.707 117.988,107.448 118.509,107.019 118.484 C 106.152 118.432,101.200 123.340,101.200 124.251 C 101.200 124.553,101.020 124.800,100.800 124.800 C 100.580 124.800,100.400 125.160,100.400 125.600 C 100.400 126.040,100.220 126.400,100.000 126.400 C 99.780 126.400,99.600 126.670,99.600 127.000 C 99.600 127.330,99.440 127.600,99.245 127.600 C 98.911 127.600,98.659 128.486,98.138 131.497 C 98.014 132.210,97.772 132.706,97.599 132.599 C 97.131 132.310,97.103 141.871,97.568 142.740 C 97.788 143.151,98.011 144.142,98.065 144.943 C 98.119 145.744,98.307 146.400,98.482 146.400 C 98.657 146.400,98.800 146.760,98.800 147.200 C 98.800 147.640,98.980 148.000,99.200 148.000 C 99.420 148.000,99.600 148.360,99.600 148.800 C 99.600 149.240,99.780 149.600,100.000 149.600 C 100.220 149.600,100.400 149.960,100.400 150.400 C 100.400 150.840,100.580 151.200,100.800 151.200 C 101.020 151.200,101.200 151.485,101.200 151.834 C 101.200 152.612,106.620 158.043,108.231 158.879 C 109.245 159.405,110.204 159.892,113.695 161.650 C 114.077 161.843,114.741 162.000,115.171 162.000 C 115.601 162.000,116.064 162.180,116.200 162.400 C 116.347 162.638,118.871 162.800,122.424 162.800 C 126.141 162.800,128.400 162.649,128.400 162.400 C 128.400 162.180,128.641 162.000,128.936 162.000 C 129.451 162.000,130.284 96.951,129.776 96.442 C 129.679 96.346,129.600 100.347,129.600 105.333 M191.863 122.398 C 189.872 124.147,189.621 125.096,188.002 137.000 C 187.763 138.760,187.402 141.100,187.200 142.200 C 185.793 149.863,185.891 152.595,187.703 156.200 C 191.160 163.081,199.471 166.502,203.337 162.636 C 206.892 159.081,205.804 154.691,200.758 152.232 C 198.362 151.063,198.170 150.591,198.737 147.243 C 199.002 145.681,199.390 143.232,199.600 141.800 C 200.449 136.009,200.866 133.296,201.224 131.233 C 201.431 130.042,201.600 128.110,201.600 126.940 C 201.600 122.048,195.502 119.203,191.863 122.398 M165.817 126.124 C 162.825 127.944,161.664 131.340,162.967 134.459 C 164.204 137.419,168.699 139.434,170.800 137.970 C 171.248 137.657,171.080 137.614,170.133 137.800 C 162.886 139.223,160.031 128.652,167.000 126.199 C 168.242 125.761,168.376 125.636,167.600 125.641 C 167.050 125.644,166.248 125.861,165.817 126.124 M170.600 126.085 C 171.260 126.317,172.025 126.685,172.300 126.903 C 172.575 127.120,172.800 127.161,172.800 126.993 C 172.800 126.414,171.397 125.626,170.400 125.644 C 169.451 125.662,169.461 125.685,170.600 126.085 M227.900 126.157 C 227.515 126.449,227.200 126.825,227.200 126.993 C 227.200 127.161,227.425 127.120,227.700 126.903 C 227.975 126.685,228.740 126.317,229.400 126.085 C 230.539 125.685,230.549 125.662,229.600 125.644 C 229.050 125.634,228.285 125.865,227.900 126.157 M232.600 126.000 C 233.701 126.473,234.092 126.473,233.800 126.000 C 233.664 125.780,233.158 125.613,232.676 125.628 C 231.831 125.655,231.829 125.669,232.600 126.000 M235.539 127.791 C 237.792 130.357,237.713 133.807,235.347 136.173 C 234.562 136.958,234.084 137.600,234.285 137.600 C 234.757 137.600,236.572 135.654,237.151 134.526 C 238.185 132.515,237.507 128.905,235.795 127.300 C 234.327 125.924,234.167 126.229,235.539 127.791 M173.827 128.192 C 174.219 128.847,174.669 129.927,174.828 130.592 L 175.118 131.800 175.157 130.600 C 175.182 129.841,174.814 128.959,174.156 128.200 L 173.116 127.000 173.827 128.192 M225.067 129.467 C 224.698 129.835,224.729 134.400,225.100 134.400 C 225.265 134.400,225.400 133.230,225.400 131.800 C 225.400 130.370,225.385 129.200,225.367 129.200 C 225.348 129.200,225.213 129.320,225.067 129.467 M174.860 132.720 C 174.771 134.088,173.766 135.810,172.511 136.746 C 171.900 137.202,171.580 137.575,171.800 137.575 C 173.075 137.574,175.312 134.392,175.087 132.901 C 174.947 131.979,174.910 131.949,174.860 132.720 M225.600 135.091 C 225.600 135.540,227.932 137.804,228.155 137.571 C 228.245 137.477,227.707 136.800,226.959 136.066 C 226.212 135.333,225.600 134.894,225.600 135.091 M229.284 138.061 C 229.568 138.241,230.430 138.388,231.200 138.388 C 231.970 138.388,232.832 138.241,233.116 138.061 C 233.416 137.870,232.614 137.733,231.200 137.733 C 229.786 137.733,228.984 137.870,229.284 138.061 M129.264 164.915 C 129.319 165.732,129.502 166.400,129.672 166.400 C 129.841 166.400,129.869 165.815,129.733 165.100 C 129.382 163.260,129.146 163.166,129.264 164.915 M186.000 172.826 C 181.938 174.540,181.098 180.330,184.490 183.235 C 192.346 189.964,207.330 189.843,214.177 182.996 C 219.742 177.432,212.589 169.081,206.258 173.751 C 202.271 176.693,197.048 176.780,192.633 173.980 C 190.502 172.629,187.646 172.132,186.000 172.826 M140.893 194.000 C 141.168 194.440,141.531 194.800,141.700 194.800 C 141.869 194.800,141.782 194.440,141.507 194.000 C 141.232 193.560,140.869 193.200,140.700 193.200 C 140.531 193.200,140.618 193.560,140.893 194.000 M254.574 199.100 C 253.655 200.328,253.617 200.456,254.363 199.804 C 255.231 199.046,256.214 197.600,255.862 197.600 C 255.770 197.600,255.190 198.275,254.574 199.100 M145.600 200.085 C 145.600 200.235,146.065 200.860,146.632 201.473 C 147.200 202.085,147.805 202.838,147.977 203.145 C 148.149 203.452,148.480 203.635,148.712 203.552 C 148.945 203.468,148.340 202.592,147.368 201.605 C 146.395 200.618,145.600 199.934,145.600 200.085 M151.200 206.173 C 151.200 206.268,151.785 206.756,152.500 207.257 C 153.627 208.047,153.720 208.064,153.200 207.384 C 152.328 206.244,151.200 205.561,151.200 206.173 M156.853 242.600 C 156.830 244.800,156.953 246.821,157.124 247.091 C 157.296 247.361,157.373 245.831,157.297 243.691 C 157.104 238.316,156.901 237.817,156.853 242.600 M242.875 243.400 C 242.828 244.940,242.689 246.650,242.567 247.200 C 242.379 248.048,242.412 248.095,242.789 247.505 C 243.052 247.095,243.178 245.539,243.097 243.705 L 242.961 240.600 242.875 243.400 M158.093 262.400 C 158.093 263.170,158.175 263.485,158.276 263.100 C 158.376 262.715,158.376 262.085,158.276 261.700 C 158.175 261.315,158.093 261.630,158.093 262.400 M241.701 263.400 C 241.705 264.280,241.787 264.593,241.883 264.095 C 241.979 263.598,241.975 262.878,241.875 262.495 C 241.775 262.113,241.696 262.520,241.701 263.400 M241.293 282.000 C 241.293 282.770,241.375 283.085,241.476 282.700 C 241.576 282.315,241.576 281.685,241.476 281.300 C 241.375 280.915,241.293 281.230,241.293 282.000 M158.893 283.200 C 158.893 283.970,158.975 284.285,159.076 283.900 C 159.176 283.515,159.176 282.885,159.076 282.500 C 158.975 282.115,158.893 282.430,158.893 283.200 M240.901 285.400 C 240.905 286.280,240.987 286.593,241.083 286.095 C 241.179 285.598,241.175 284.878,241.075 284.495 C 240.975 284.113,240.896 284.520,240.901 285.400 M240.493 302.800 C 240.493 303.570,240.575 303.885,240.676 303.500 C 240.776 303.115,240.776 302.485,240.676 302.100 C 240.575 301.715,240.493 302.030,240.493 302.800 M159.693 303.600 C 159.693 304.370,159.775 304.685,159.876 304.300 C 159.976 303.915,159.976 303.285,159.876 302.900 C 159.775 302.515,159.693 302.830,159.693 303.600 M240.101 306.200 C 240.105 307.080,240.187 307.393,240.283 306.895 C 240.379 306.398,240.375 305.678,240.275 305.295 C 240.175 304.913,240.096 305.320,240.101 306.200 M160.509 325.200 C 160.509 326.190,160.587 326.595,160.682 326.100 C 160.778 325.605,160.778 324.795,160.682 324.300 C 160.587 323.805,160.509 324.210,160.509 325.200 M239.320 329.200 C 239.320 330.410,239.395 330.905,239.487 330.300 C 239.578 329.695,239.578 328.705,239.487 328.100 C 239.395 327.495,239.320 327.990,239.320 329.200 M160.975 371.000 C 160.975 376.940,161.031 379.426,161.099 376.524 C 161.167 373.622,161.167 368.762,161.099 365.724 C 161.031 362.686,160.975 365.060,160.975 371.000 " stroke="none" fill="#bc5d4d" fill-rule="evenodd"></path></g></svg>